name Walk4.mot
datacolumns 19
datarows 15
range 2.14500000 2.21500000
endheader

                time	   L_ground_force_vx	   L_ground_force_vy	   L_ground_force_vz	   L_ground_force_px	   L_ground_force_py	   L_ground_force_pz	   R_ground_force_vx	   R_ground_force_vy	   R_ground_force_vz	   R_ground_force_px	   R_ground_force_py	   R_ground_force_pz	   L_ground_torque_x	   L_ground_torque_y	   L_ground_torque_z	   R_ground_torque_x	   R_ground_torque_y	   R_ground_torque_z	
          2.14500000	         -0.00000000	         -0.00000000	          0.00000000	          0.00000000	          0.00000000	          0.00000000	          8.31060296	         37.31585734	          0.41519467	          0.16161120	          0.00000000	          0.03301738	          0.00000000	         -0.00000000	          0.00000000	          0.00000000	          0.14091156	          0.00000000	
          2.15000000	          0.00000000	         -0.00000000	         -0.00000000	          0.00000000	          0.00000000	          0.00000000	          4.91648284	         24.31295031	          0.14492218	          0.13773129	          0.00000000	          0.02829238	          0.00000000	         -0.00000000	          0.00000000	          0.00000000	          0.12282851	          0.00000000	
          2.15500000	          0.00000000	          0.00000000	         -0.00000000	          0.00000000	          0.00000000	          0.00000000	          2.35137723	         14.08139166	         -0.04363416	          0.11203994	          0.00000000	          0.02314366	          0.00000000	         -0.00000000	          0.00000000	          0.00000000	          0.10175463	          0.00000000	
          2.16000000	          0.00000000	          0.00000000	         -0.00000000	          0.00000000	          0.00000000	          0.00000000	          0.52045419	          6.40723326	         -0.16121066	          0.08672360	          0.00000000	          0.01801622	          0.00000000	         -0.00000000	          0.00000000	          0.00000000	          0.08019789	          0.00000000	
          2.16500000	          0.00000000	          0.00000000	         -0.00000000	          0.00000000	          0.00000000	          0.00000000	         -0.69484293	          0.97920946	         -0.22386038	          0.06362993	          0.00000000	          0.01330323	          0.00000000	         -0.00000000	          0.00000000	          0.00000000	          0.06003128	          0.00000000	
          2.17000000	          0.00000000	          0.00000000	         -0.00000000	          0.00000000	          0.00000000	          0.00000000	         -1.41923575	         -2.57912068	         -0.24633178	          0.04378806	          0.00000000	          0.00922876	          0.00000000	         -0.00000000	          0.00000000	          0.00000000	          0.04235108	          0.00000000	
          2.17500000	          0.00000000	          0.00000000	         -0.00000000	         -0.00000000	          0.00000000	         -0.00000000	         -1.77153045	         -4.65703160	         -0.24126039	          0.02760074	          0.00000000	          0.00588600	          0.00000000	         -0.00000000	          0.00000000	          0.00000000	          0.02766365	          0.00000000	
          2.18000000	          0.00000000	          0.00000000	         -0.00000000	         -0.00000000	          0.00000000	         -0.00000000	         -1.85734357	         -5.62124074	         -0.21892743	          0.01503724	          0.00000000	          0.00327683	          0.00000000	         -0.00000000	          0.00000000	          0.00000000	          0.01605703	          0.00000000	
          2.18500000	          0.00000000	          0.00000000	         -0.00000000	         -0.00000000	          0.00000000	         -0.00000000	         -1.76548045	         -5.79499720	         -0.18729122	          0.00579125	          0.00000000	          0.00134447	          0.00000000	         -0.00000000	          0.00000000	          0.00000000	          0.00734401	          0.00000000	
          2.19000000	          0.00000000	          0.00000000	         -0.00000000	         -0.00000000	          0.00000000	         -0.00000000	         -1.56694225	         -5.44810965	         -0.15219106	         -0.00059605	          0.00000000	         -0.00000105	          0.00000000	         -0.00000000	          0.00000000	          0.00000000	          0.00117570	          0.00000000	
          2.19500000	          0.00000000	          0.00000000	         -0.00000000	         -0.00000000	          0.00000000	         -0.00000000	         -1.31569736	         -4.79477778	         -0.11764553	         -0.00464495	          0.00000000	         -0.00086382	          0.00000000	          0.00000000	          0.00000000	          0.00000000	         -0.00287291	          0.00000000	
          2.20000000	          0.00000000	          0.00000000	         -0.00000000	         -0.00000000	          0.00000000	         -0.00000000	         -1.05052313	         -3.99659976	         -0.08618782	         -0.00687408	          0.00000000	         -0.00134878	          0.00000000	          0.00000000	          0.00000000	          0.00000000	         -0.00524199	          0.00000000	
          2.20500000	          0.00000000	          0.00000000	         -0.00000000	         -0.00000000	          0.00000000	         -0.00000000	         -0.79738836	         -3.16866094	         -0.05919818	         -0.00775992	          0.00000000	         -0.00155310	          0.00000000	          0.00000000	          0.00000000	          0.00000000	         -0.00634665	          0.00000000	
          2.21000000	          0.00000000	          0.00000000	         -0.00000000	         -0.00000000	          0.00000000	         -0.00000000	         -0.57199415	         -2.38711705	         -0.03720839	         -0.00771427	          0.00000000	         -0.00156130	          0.00000000	          0.00000000	          0.00000000	          0.00000000	         -0.00655311	          0.00000000	
          2.21500000	          0.00000000	          0.00000000	         -0.00000000	         -0.00000000	          0.00000000	         -0.00000000	         -0.38221539	         -1.69713600	         -0.02016403	         -0.00707490	          0.00000000	         -0.00144308	          0.00000000	          0.00000000	          0.00000000	          0.00000000	         -0.00616724	          0.00000000	
